<svg width="38" height="38" viewBox="0 0 38 38" fill="none" xmlns="http://www.w3.org/2000/svg">
<g clip-path="url(#clip0_138_97)">
<path d="M25.5096 9.30885C27.8376 11.1352 29.2712 13.5497 29.6296 16.4976C29.905 19.0916 29.1779 21.8461 27.5389 23.8913C27.4285 24.02 27.317 24.148 27.2047 24.2752C27.1158 24.3797 27.1158 24.3797 27.0252 24.4863C25.4178 26.3426 22.9372 27.6192 20.484 27.8162C17.8022 27.9232 15.2625 27.4322 13.1129 25.7205C13.0759 25.6911 13.0388 25.6618 13.0006 25.6316C10.812 23.8853 9.48687 21.4182 9.16117 18.6424C8.91841 15.8746 9.69997 13.1831 11.466 11.032C11.6259 10.8421 11.7906 10.657 11.9567 10.4724C12.0014 10.4217 12.0461 10.3709 12.0922 10.3186C15.5065 6.66793 21.5807 6.3758 25.5096 9.30885ZM22.554 13.6047C22.4854 13.6804 22.4172 13.7564 22.3494 13.8328C22.2956 13.8924 22.2956 13.8924 22.2407 13.9533C22.0076 14.2125 21.7772 14.474 21.5488 14.7372C21.2937 15.0291 21.0328 15.3156 20.7731 15.6033C20.6646 15.7237 20.5562 15.8442 20.4479 15.9646C20.2837 16.1471 20.1195 16.3295 19.955 16.5117C19.7108 16.7824 19.4673 17.0533 19.2284 17.3286C18.9779 17.6166 18.7197 17.8971 18.4602 18.1769C18.2349 18.4208 18.0209 18.6712 17.8102 18.9275C17.3927 18.6406 17.042 18.3124 16.6884 17.9505C16.4471 17.7088 16.1922 17.4855 15.9313 17.2654C15.6656 17.3746 15.518 17.5291 15.3306 17.7442C15.2744 17.8085 15.2182 17.8729 15.1603 17.9392C15.1047 18.003 15.0491 18.0668 14.9918 18.1326C14.9399 18.1882 14.888 18.2438 14.8346 18.3011C14.7881 18.3513 14.7416 18.4015 14.6937 18.4533C14.6308 18.5202 14.6308 18.5202 14.5667 18.5885C14.5267 18.649 14.5267 18.649 14.486 18.7107C14.5636 18.9437 14.602 18.9814 14.7841 19.1308C15.088 19.3883 15.379 19.6575 15.6693 19.9302C16.0286 20.2671 16.3905 20.6004 16.7578 20.9287C17.1362 21.2695 17.5089 21.6166 17.8824 21.9627C17.9632 21.8818 17.9632 21.8818 18.0456 21.7992C18.1593 21.6857 18.2732 21.5725 18.3877 21.4599C18.6693 21.1825 18.9369 20.8981 19.1948 20.5987C19.4512 20.3025 19.7156 20.0132 19.9781 19.7224C20.0866 19.602 20.195 19.4816 20.3033 19.3611C20.4675 19.1786 20.6317 18.9962 20.7962 18.814C21.0404 18.5434 21.2839 18.2724 21.5228 17.9971C21.7723 17.7105 22.0296 17.4312 22.2869 17.1517C22.5151 16.9034 22.739 16.6521 22.9599 16.3974C23.1609 16.1675 23.366 15.9415 23.5705 15.7148C23.8197 15.438 24.067 15.1594 24.3141 14.8806C24.1963 14.5645 23.958 14.3774 23.7134 14.158C23.6722 14.1203 23.6311 14.0827 23.5887 14.0439C23.1058 13.4956 23.1058 13.4956 22.554 13.6047Z" fill="#FEDC5A"/>
<path d="M33.4918 12.7849C34.3026 12.7849 35.1135 12.7849 35.9489 12.7849C37.0837 17.52 36.5055 22.5031 33.9615 26.7006C33.4437 27.5315 32.858 28.3181 32.1902 29.0345C32.0617 29.1729 31.9412 29.3149 31.8207 29.4602C31.1928 30.1739 30.4696 30.7871 29.7114 31.3572C29.6528 31.4013 29.5942 31.4454 29.5338 31.4909C29.1289 31.7896 28.7263 32.0341 28.2887 32.2966C30.0057 32.2966 31.7228 32.2966 33.4918 32.2966C33.2056 32.0105 32.9195 31.7243 32.6246 31.4294C32.7607 31.1573 32.8712 31.0214 33.0836 30.8118C33.1759 30.7203 33.1759 30.7203 33.2699 30.6269C33.3342 30.5638 33.3985 30.5008 33.4647 30.4358C33.5296 30.3716 33.5944 30.3074 33.6612 30.2413C33.8212 30.083 33.9816 29.925 34.1422 29.7673C34.4078 29.8793 34.5796 30.0406 34.7837 30.2421C34.8176 30.2755 34.8516 30.3089 34.8867 30.3433C34.9984 30.4533 35.1097 30.5639 35.2208 30.6746C35.2984 30.7515 35.3759 30.8284 35.4534 30.9052C35.6156 31.0662 35.7774 31.2275 35.9391 31.3889C36.1466 31.596 36.3552 31.8019 36.5641 32.0076C36.7245 32.1658 36.884 32.3248 37.0434 32.4841C37.12 32.5604 37.1969 32.6364 37.2741 32.7121C37.3817 32.8178 37.4882 32.9245 37.5944 33.0317C37.6553 33.0922 37.7162 33.1528 37.779 33.2151C37.9 33.3806 37.9 33.3806 37.9038 33.5246C37.7971 33.7282 37.6577 33.8656 37.4945 34.0275C37.46 34.0621 37.4254 34.0967 37.3898 34.1323C37.2757 34.2462 37.1609 34.3594 37.0461 34.4725C36.9668 34.5514 36.8875 34.6304 36.8082 34.7094C36.5997 34.9171 36.3906 35.1241 36.1813 35.331C35.9678 35.5423 35.7549 35.7542 35.5419 35.9661C35.1241 36.3816 34.7057 36.7963 34.2867 37.2107C34.0321 37.0908 33.8677 36.953 33.6691 36.7517C33.6081 36.6902 33.5471 36.6287 33.4842 36.5654C33.4211 36.5011 33.3581 36.4368 33.2931 36.3706C33.2289 36.3058 33.1647 36.2409 33.0986 36.1741C32.9403 36.0141 32.7823 35.8538 32.6246 35.6931C32.9256 35.3334 33.2287 35.0168 33.5641 34.6814C26.1475 34.6575 18.7308 34.6337 11.0895 34.6091C11.0895 33.8699 11.0895 33.1306 11.0895 32.3689C11.5044 32.3667 11.5044 32.3667 11.9278 32.3646C12.847 32.3597 13.7663 32.3541 14.6855 32.3481C15.2423 32.3445 15.799 32.3412 16.3557 32.3384C16.8418 32.336 17.3278 32.3331 17.8138 32.3297C18.0704 32.3279 18.3271 32.3263 18.5837 32.3253C20.0206 32.3195 21.4591 32.3038 22.8688 31.994C22.9764 31.9708 22.9764 31.9708 23.0862 31.9471C25.6647 31.3671 27.9 30.1396 29.8063 28.322C29.8626 28.2695 29.919 28.2169 29.9771 28.1628C32.7428 25.5101 34.1398 21.5168 34.2371 17.7532C34.2106 16.3168 33.9198 14.9088 33.6087 13.5119C33.5602 13.2713 33.5265 13.0279 33.4918 12.7849Z" fill="#FEDC5A"/>
<path d="M18.3954 0.482506C18.4976 0.481434 18.4976 0.481434 18.602 0.480341C21.4115 0.456953 21.4115 0.456953 22.7242 0.788788C22.8121 0.810493 22.9 0.832198 22.9906 0.854561C23.9261 1.08722 24.8441 1.35087 25.7594 1.65598C25.7594 2.51449 25.7594 3.37301 25.7594 4.25754C25.3955 4.13624 25.0321 4.01489 24.6695 3.89C23.694 3.55683 22.7232 3.23677 21.7125 3.02902C21.6567 3.0173 21.6008 3.00557 21.5433 2.99349C17.9364 2.27076 14.145 3.18367 11.0929 5.17014C10.7141 5.42396 10.3568 5.70129 10.0055 5.99191C9.96416 6.02591 9.92282 6.05992 9.88023 6.09495C6.81877 8.62696 4.81252 12.2197 4.36877 16.1814C4.1798 18.2481 4.32649 20.4475 5.09143 22.3962C5.14243 22.2644 5.14243 22.2644 5.19447 22.13C5.23987 22.0155 5.28532 21.901 5.33081 21.7865C5.35312 21.7285 5.37543 21.6705 5.39842 21.6107C5.42054 21.5555 5.44267 21.5004 5.46546 21.4435C5.49555 21.3669 5.49555 21.3669 5.52624 21.2887C5.59729 21.1677 5.59729 21.1677 5.81409 21.0954C6.01118 21.1602 6.01118 21.1602 6.24627 21.2623C6.33034 21.2984 6.41441 21.3345 6.50103 21.3716C6.58973 21.4105 6.67841 21.4494 6.76709 21.4884C6.85659 21.5271 6.94613 21.5657 7.03569 21.6043C7.25506 21.699 7.47414 21.7944 7.69299 21.8903C7.6515 22.1876 7.58456 22.4446 7.47117 22.7222C7.44028 22.7984 7.40939 22.8747 7.37756 22.9532C7.32731 23.0752 7.32731 23.0752 7.27605 23.1996C7.24155 23.2842 7.20705 23.3689 7.17151 23.4561C7.09852 23.6348 7.02536 23.8136 6.9519 23.9922C6.85839 24.2195 6.76547 24.4472 6.67275 24.6749C6.58354 24.8938 6.49394 25.1126 6.40435 25.3314C6.37129 25.4125 6.33824 25.4935 6.30418 25.5769C6.13189 25.9954 5.95055 26.4029 5.74182 26.8044C5.21181 26.6353 4.69916 26.4345 4.18444 26.2237C4.09943 26.1891 4.01442 26.1545 3.92683 26.1188C3.74817 26.0459 3.56955 25.973 3.39098 25.8999C3.16259 25.8065 2.93408 25.7133 2.70554 25.6203C2.48634 25.531 2.26721 25.4415 2.04809 25.352C1.96626 25.3187 1.88443 25.2853 1.80013 25.251C1.72412 25.2199 1.64811 25.1887 1.5698 25.1567C1.46972 25.1158 1.46972 25.1158 1.36762 25.074C1.20826 25.006 1.05396 24.9327 0.900024 24.8532C0.944156 24.4066 1.11998 24.0135 1.28845 23.6021C1.33177 23.4922 1.33177 23.4922 1.37596 23.3801C1.40428 23.3106 1.4326 23.241 1.46178 23.1694C1.48743 23.1059 1.51308 23.0425 1.53951 22.9771C1.62268 22.8298 1.62268 22.8298 1.83948 22.7575C2.03002 22.8223 2.21047 22.8911 2.39502 22.9698C2.44574 22.9908 2.49647 23.0118 2.54873 23.0335C2.67389 23.0854 2.79871 23.1382 2.92346 23.1911C2.90157 23.1322 2.87968 23.0732 2.85712 23.0124C1.38324 18.8447 1.80212 14.0874 3.68851 10.1236C4.26772 8.94911 4.97548 7.86355 5.81409 6.8591C5.84834 6.81751 5.8826 6.77591 5.9179 6.73306C6.67207 5.81919 7.47919 4.98648 8.41565 4.25754C8.4858 4.20062 8.55594 4.1437 8.62821 4.08506C11.3291 1.93177 14.9235 0.512323 18.3954 0.482506Z" fill="#FEDC5A"/>
<path d="M0.900024 29.9841C3.38018 29.9841 5.86034 29.9841 8.41565 29.9841C8.41565 32.4643 8.41565 34.9444 8.41565 37.4998C5.93549 37.4998 3.45534 37.4998 0.900024 37.4998C0.900024 35.0196 0.900024 32.5394 0.900024 29.9841Z" fill="#FEDC5A"/>
<path d="M27.8551 4.11304C30.0252 4.11304 32.1954 4.11304 34.4313 4.11304C34.4313 6.28317 34.4313 8.45331 34.4313 10.6892C32.2611 10.6892 30.091 10.6892 27.8551 10.6892C27.8551 8.51907 27.8551 6.34894 27.8551 4.11304Z" fill="#FEDC5A"/>
</g>
<defs>
<clipPath id="clip0_138_97">
<rect width="37" height="37" fill="white" transform="translate(0.900024 0.499756)"/>
</clipPath>
</defs>
</svg>
