<svg width="38" height="38" viewBox="0 0 38 38" fill="none" xmlns="http://www.w3.org/2000/svg">
<g clip-path="url(#clip0_138_85)">
<path d="M14.142 18.6831C14.3169 18.7815 14.4719 18.8871 14.6312 19.0088C15.3872 19.5477 16.2364 19.9362 17.1379 20.1561C17.2023 20.1723 17.2667 20.1885 17.333 20.2052C19.2855 20.6118 21.2659 20.1377 22.9192 19.0721C23.0746 18.9517 23.2258 18.8312 23.3711 18.6989C23.4973 18.6385 23.4973 18.6385 23.6709 18.687C25.424 19.5833 26.6809 21.2061 27.3119 23.0509C28.0959 25.5023 27.6887 28.6022 27.6887 30.9236C21.8222 30.9236 15.9557 30.9236 9.91138 30.9236C9.91138 22.3761 9.91138 22.3761 12.2736 19.8625C12.6713 19.4744 13.1371 19.1646 13.5969 18.8553C13.6592 18.8095 13.7216 18.7638 13.7858 18.7167C13.9583 18.6385 13.9583 18.6385 14.142 18.6831Z" fill="#5454D4"/>
<path d="M22.5265 8.3022C23.7224 9.3004 24.5945 10.6333 24.7981 12.2068C24.9629 14.2222 24.4591 15.7965 23.16 17.336C22.1222 18.4583 20.5502 19.0635 19.0496 19.1556C17.3943 19.2093 15.8253 18.5966 14.6086 17.4822C13.4158 16.3354 12.7667 14.8036 12.7289 13.1517C12.7371 11.6393 13.2523 10.2388 14.2473 9.09938C14.3041 9.02839 14.361 8.95741 14.4195 8.88427C16.4491 6.53962 20.1528 6.5409 22.5265 8.3022Z" fill="#5454D4"/>
<path d="M30.7239 7.72635C30.7934 7.76184 30.8629 7.79733 30.9345 7.8339C32.2777 8.56106 33.2559 9.81752 33.7125 11.273C34.1819 12.9046 34.0344 14.628 33.208 16.1227C32.9068 16.6405 32.5212 17.0629 32.0969 17.4822C32.0178 17.5624 32.0178 17.5624 31.9371 17.6442C30.78 18.7498 29.1841 19.1883 27.6136 19.1624C26.4593 19.0895 25.3362 18.7804 24.3645 18.1326C24.3168 18.0611 24.2691 17.9895 24.22 17.9158C24.2677 17.8443 24.3154 17.7727 24.3645 17.699C24.4122 17.699 24.4599 17.699 24.509 17.699C24.5265 17.6615 24.5441 17.6239 24.5621 17.5852C24.6577 17.4021 24.7656 17.229 24.8755 17.0542C25.9424 15.3428 26.2919 13.3836 25.8453 11.4144C25.5755 10.2976 25.0785 9.30431 24.3236 8.43602C24.22 8.30447 24.22 8.30447 24.22 8.15994C26.2013 6.94642 28.6102 6.59332 30.7239 7.72635Z" fill="#5454D4"/>
<path d="M5.17657 18.6875C5.35671 18.7819 5.50881 18.8854 5.67029 19.0088C7.0404 19.9854 8.54942 20.2992 10.2004 20.3728C10.1549 20.5892 10.0839 20.7598 9.97574 20.9523C9.92992 21.0355 9.92992 21.0355 9.88317 21.1204C9.85075 21.1792 9.81832 21.2381 9.78492 21.2987C9.11014 22.5546 8.7509 23.9164 8.74029 25.3448C8.73957 25.4065 8.73884 25.4682 8.7381 25.5317C8.73585 25.7294 8.73405 25.927 8.73227 26.1247C8.73093 26.2475 8.72957 26.3703 8.72818 26.4931C8.72326 26.9462 8.7189 27.3992 8.71448 27.8523C8.70405 28.8658 8.69361 29.8793 8.68287 30.9236C6.13117 30.9236 3.57947 30.9236 0.950443 30.9236C0.947462 29.995 0.944481 29.0664 0.94141 28.1097C0.940094 27.8191 0.938778 27.5284 0.937423 27.229C0.93677 26.8676 0.93677 26.8676 0.936649 26.6971C0.93643 26.5808 0.935929 26.4645 0.935184 26.3482C0.928739 25.2867 0.958332 24.2119 1.28016 23.1911C1.29872 23.1313 1.31728 23.0714 1.3364 23.0097C1.92166 21.2179 3.14226 19.8023 4.70826 18.7829C4.75828 18.7495 4.8083 18.716 4.85984 18.6816C4.99732 18.6384 4.99732 18.6384 5.17657 18.6875Z" fill="#5454D4"/>
<path d="M32.6392 18.6816C32.6987 18.715 32.7583 18.7485 32.8196 18.7829C32.908 18.8308 32.908 18.8308 32.9983 18.8797C34.733 19.9499 35.9367 21.6741 36.444 23.639C36.6561 24.5923 36.67 25.555 36.6638 26.5269C36.6636 26.6405 36.6634 26.754 36.6633 26.8676C36.6626 27.2816 36.6606 27.6957 36.6587 28.1097C36.6557 29.0383 36.6527 29.9668 36.6497 30.9235C34.098 30.9235 31.5463 30.9235 28.9172 30.9235C28.8947 27.8974 28.8947 27.8974 28.8892 26.9501C28.8866 26.6642 28.8866 26.6642 28.8836 26.3782C28.8825 26.2531 28.8817 26.1281 28.8813 26.003C28.8746 24.2185 28.5959 22.1817 27.4883 20.7081C27.3997 20.5896 27.3997 20.5896 27.3997 20.3728C27.4733 20.3709 27.5468 20.369 27.6227 20.3671C29.336 20.3057 30.9369 19.8396 32.277 18.7355C32.4583 18.6384 32.4583 18.6384 32.6392 18.6816Z" fill="#5454D4"/>
<path d="M13.3801 8.15994C13.2722 8.39754 13.1338 8.58684 12.9736 8.79227C11.8406 10.3386 11.3481 12.2636 11.6206 14.1628C11.8297 15.4057 12.2995 16.4551 13.0188 17.4822C13.0589 17.54 13.0991 17.5977 13.1405 17.6572C13.219 17.7685 13.2993 17.8785 13.3801 17.9881C12.0768 18.9245 10.5319 19.3073 8.9403 19.0901C7.71642 18.8776 6.64457 18.3869 5.71997 17.5545C5.64591 17.4905 5.64591 17.4905 5.57035 17.4252C4.44961 16.3923 3.84066 14.8146 3.77052 13.3153C3.73134 11.7898 4.20492 10.2813 5.24121 9.14908C5.37447 9.00955 5.51054 8.87388 5.6477 8.73807C5.7049 8.67929 5.76209 8.62051 5.82102 8.55994C7.88259 6.55659 11.0769 6.71989 13.3801 8.15994Z" fill="#5454D4"/>
</g>
<defs>
<clipPath id="clip0_138_85">
<rect width="37" height="37" fill="white" transform="translate(0.300049 0.499756)"/>
</clipPath>
</defs>
</svg>
