<svg viewBox="0 0 64 64" version="1.1" xml:space="preserve" xmlns="http://www.w3.org/2000/svg" xmlns:xlink="http://www.w3.org/1999/xlink" fill="#000000"><g id="SVGRepo_bgCarrier" stroke-width="0"></g><g id="SVGRepo_tracerCarrier" stroke-linecap="round" stroke-linejoin="round"></g><g id="SVGRepo_iconCarrier"> <style type="text/css"> .st0{fill:#FFEEA9;} .st1{fill:#D32436;} .st2{fill:#8DD1D3;} .st3{fill:#330D00;} .st4{fill:none;stroke:#330D00;stroke-linecap:round;stroke-linejoin:round;stroke-miterlimit:10;} </style> <g id="_x34_0-Id_Card"></g> <g id="_x33_9-Formula"></g> <g id="_x33_8-Elbow"></g> <g id="_x33_7-Diploma"></g> <g id="_x33_6-Laptop"></g> <g id="_x33_5-Brush"></g> <g id="_x33_4-Baseball"></g> <g id="_x33_3-Student"></g> <g id="_x33_2-Highlighter"></g> <g id="_x33_1-Ruler"></g> <g id="_x33_0-Caliper"></g> <g id="_x32_9-Ruler_Elbow"></g> <g id="_x32_8-Abacus"></g> <g id="_x32_7-Id_Card"></g> <g id="_x32_6-Eraser"></g> <g id="_x32_5-Pencil"></g> <g id="_x32_4-Ink"></g> <g id="_x32_3-Graduation_Cap"></g> <g id="_x32_2-_Sling_Bag"></g> <g id="_x32_1-Rugby_Ball"></g> <g id="_x32_0-Clock"></g> <g id="_x31_9-Certificate"></g> <g id="_x31_8-Idea"></g> <g id="_x31_7-Bookshelf"></g> <g id="_x31_6-Formula"></g> <g id="_x31_5-Bell"></g> <g id="_x31_4-Magnifying_Glass"></g> <g id="_x31_3-Calculator"></g> <g id="_x31_2-Eyeglasses"></g> <g id="_x31_1-Bus"></g> <g id="_x31_0-Trophy"></g> <g id="_x39_-Globe"></g> <g id="_x38_-Basket_Ball"></g> <g id="_x37_-Pen"></g> <g id="_x36_-Board"></g> <g id="_x35_-Bag"></g> <g id="_x34_-Exam"> <g> <g> <rect class="st0" height="44.1" transform="matrix(-1.836970e-16 1 -1 -1.836970e-16 64 7.105427e-15)" width="61.8" x="1.1" y="9.9"></rect> </g> <g> <g> <path class="st3" d="M16.6,17.7h30.9c0.6,0,1.1-0.5,1.1-1.1c0-0.6-0.5-1.1-1.1-1.1H16.6c-0.6,0-1.1,0.5-1.1,1.1 C15.4,17.2,15.9,17.7,16.6,17.7z"></path> </g> <g> <path class="st3" d="M25.4,11h13.2c0.6,0,1.1-0.5,1.1-1.1s-0.5-1.1-1.1-1.1H25.4c-0.6,0-1.1,0.5-1.1,1.1S24.8,11,25.4,11z"></path> </g> <g> <path class="st3" d="M16.6,24.3h30.9c0.6,0,1.1-0.5,1.1-1.1c0-0.6-0.5-1.1-1.1-1.1H16.6c-0.6,0-1.1,0.5-1.1,1.1 C15.4,23.8,15.9,24.3,16.6,24.3z"></path> </g> <g> <path class="st3" d="M16.6,30.9h30.9c0.6,0,1.1-0.5,1.1-1.1c0-0.6-0.5-1.1-1.1-1.1H16.6c-0.6,0-1.1,0.5-1.1,1.1 C15.4,30.4,15.9,30.9,16.6,30.9z"></path> </g> <g> <path class="st3" d="M54.1,0H9.9C9.3,0,8.8,0.5,8.8,1.1v61.8c0,0.6,0.5,1.1,1.1,1.1h44.1c0.6,0,1.1-0.5,1.1-1.1V1.1 C55.2,0.5,54.7,0,54.1,0z M53,61.8H11V2.2H53V61.8z"></path> </g> <g> <path class="st3" d="M16.6,37.5h30.9c0.6,0,1.1-0.5,1.1-1.1c0-0.6-0.5-1.1-1.1-1.1H16.6c-0.6,0-1.1,0.5-1.1,1.1 C15.4,37,15.9,37.5,16.6,37.5z"></path> </g> <g> <path class="st3" d="M16.6,44.1h30.9c0.6,0,1.1-0.5,1.1-1.1c0-0.6-0.5-1.1-1.1-1.1H16.6c-0.6,0-1.1,0.5-1.1,1.1 C15.4,43.6,15.9,44.1,16.6,44.1z"></path> </g> <g> <path class="st3" d="M16.6,50.8h30.9c0.6,0,1.1-0.5,1.1-1.1c0-0.6-0.5-1.1-1.1-1.1H16.6c-0.6,0-1.1,0.5-1.1,1.1 C15.4,50.3,15.9,50.8,16.6,50.8z"></path> </g> </g> </g> </g> <g id="_x33_-Book"></g> <g id="_x32_-Ruler"></g> <g id="_x31_-Building"></g> </g></svg>