<svg width="86" height="13" viewBox="0 0 86 13" fill="none" xmlns="http://www.w3.org/2000/svg">
<path d="M67.1353 1.05323C65.1553 1.69867 63.4071 3.93692 62.7382 6.68528C62.4617 7.85126 62.4617 9.55857 62.7382 10.381C63.0058 11.1722 63.5409 11.8593 64.1653 12.2132C64.638 12.4839 64.745 12.5047 65.744 12.5047C67.0016 12.4943 67.4475 12.3382 68.5089 11.5053L69.16 10.9952L75.6175 10.8911C87.6495 10.6933 88.1311 10.5684 77.6511 10.3706C73.9942 10.2977 70.7476 10.204 70.4265 10.1624L69.8468 10.0895L70.6049 10.0791C74.6453 10.0166 85.0719 9.71473 85.277 9.65226C85.5357 9.56898 85.5357 9.56898 85.1432 9.50652C84.9202 9.47529 81.9501 9.37118 78.543 9.27749C72.9953 9.12133 69.6773 8.96517 70.9171 8.92353C76.8305 8.72573 85.4554 8.38219 85.4821 8.34055C85.5089 8.30932 85.5089 8.27808 85.4911 8.25726C85.4732 8.23644 82.6637 8.12193 79.2565 7.98659C73.022 7.75756 71.0241 7.66387 71.0776 7.6014C71.0955 7.58058 74.235 7.42443 78.0614 7.24745C85.0719 6.93513 85.9816 6.88308 85.0094 6.84144C83.065 6.77898 71.4612 6.2064 71.4344 6.16476C71.3541 6.08148 72.5493 5.99819 77.9633 5.71711C81.0582 5.56095 83.4842 5.41521 83.3594 5.39439C83.2345 5.38398 80.5587 5.23823 77.4013 5.07166C74.244 4.9051 71.6395 4.73853 71.6128 4.7073C71.5771 4.67607 71.5771 4.62401 71.5949 4.60319C71.6128 4.58237 73.7802 4.44704 76.4024 4.29088C79.0246 4.12431 81.1831 3.98897 81.192 3.97856C81.2009 3.96815 79.0246 3.83282 76.3578 3.69748C73.682 3.55174 71.4701 3.39558 71.4344 3.36435C71.4076 3.32271 71.3987 3.27065 71.4255 3.23942C71.4522 3.20819 73.0577 3.07285 74.9842 2.93752C76.9197 2.80218 78.4181 2.68767 78.32 2.67726C78.2219 2.67726 76.7948 2.59397 75.1537 2.51069C71.2828 2.30248 70.8725 2.26084 70.8725 2.10468C70.8725 2.00058 71.4166 1.93811 73.1023 1.83401C74.3331 1.76114 75.3232 1.68826 75.3143 1.67785C75.2964 1.65703 74.1458 1.59457 72.7544 1.5217C70.5246 1.40718 70.1768 1.36554 69.8111 1.17815C69.276 0.897069 67.84 0.824195 67.1353 1.05323ZM68.2413 2.56274C68.7765 2.80218 68.9549 4.02021 68.6784 5.69629C68.1165 9.18379 66.6715 11.5782 65.6369 10.735C64.6736 9.94376 65.6548 4.79058 67.0818 3.12491C67.3316 2.823 67.6437 2.56274 67.7597 2.53151C67.8756 2.51069 67.9827 2.47946 67.9916 2.46905C68.0005 2.46905 68.1075 2.50028 68.2413 2.56274Z" fill="#D7D7D7"/>
<path d="M0.64271 1.95882C0.660548 2.37524 0.705144 4.86334 0.731902 7.47637L0.785417 12.2444H2.14114L3.48793 12.234L6.00315 6.90379C7.38563 3.96804 8.54512 1.49035 8.57188 1.38625C8.63431 1.21968 8.55404 1.20927 7.66212 1.20927H6.69885L5.13799 4.49898C4.28174 6.32081 3.53253 7.87197 3.4701 7.96566C3.3809 8.101 3.36307 7.65335 3.35415 5.77946C3.35415 4.48857 3.32739 2.927 3.29171 2.32319L3.2382 1.20927H1.91816H0.607033L0.64271 1.95882Z" fill="#D7D7D7"/>
<path d="M9.10703 1.3342C9.01784 1.6361 6.65425 12.0153 6.65425 12.1298C6.65425 12.2131 7.41238 12.2444 9.49056 12.2444H12.3179L12.7193 11.1409C12.9423 10.537 13.1296 10.0061 13.1474 9.96447C13.1564 9.91242 12.4607 9.88119 11.5955 9.8916C10.7303 9.90201 9.98112 9.87078 9.9276 9.82913C9.86517 9.78749 9.90084 9.45436 10.0435 8.81932L10.2576 7.87197H11.6133H12.978L13.0761 7.42432C13.1296 7.18488 13.2545 6.67476 13.3437 6.27917L13.5042 5.58166H12.1752C11.2655 5.58166 10.8463 5.55043 10.8463 5.46715C10.8463 5.40469 10.9355 4.95704 11.0425 4.47816L11.2387 3.60368L12.755 3.58286L14.2802 3.55162L14.3337 2.97905C14.3694 2.66673 14.414 2.1358 14.4496 1.80267L14.5032 1.20927H11.8274C9.76705 1.20927 9.13379 1.2405 9.10703 1.3342Z" fill="#D7D7D7"/>
<path d="M15.9748 1.3342C15.8321 1.84431 13.522 11.9945 13.522 12.1298C13.522 12.2131 14.2802 12.2444 16.3583 12.2444H19.1857L19.5871 11.1409C19.8101 10.537 19.9974 10.0061 20.0152 9.96447C20.0241 9.91242 19.3284 9.88119 18.4633 9.8916C17.5981 9.90201 16.8489 9.87078 16.7954 9.82913C16.7329 9.78749 16.7686 9.45436 16.9113 8.81932L17.1254 7.87197H18.4811H19.8458L19.9439 7.42432C19.9974 7.18488 20.1222 6.67476 20.2114 6.27917L20.372 5.58166H19.043C18.1333 5.58166 17.7141 5.55043 17.7141 5.46715C17.7141 5.40469 17.8033 4.95704 17.9103 4.47816L18.1065 3.60368L19.6228 3.58286L21.148 3.55162L21.2015 2.97905C21.2371 2.66673 21.2817 2.1358 21.3174 1.80267L21.3709 1.20927H18.6952C16.6259 1.20927 16.0016 1.2405 15.9748 1.3342Z" fill="#D7D7D7"/>
<path d="M22.8426 1.3342C22.7534 1.62569 20.3898 12.0257 20.3898 12.1298C20.3898 12.2027 20.7288 12.2444 21.362 12.2444H22.3253L22.7356 10.4538C22.9675 9.46477 23.2975 7.98648 23.4848 7.17447C23.6632 6.35204 23.8416 5.717 23.8772 5.76905C23.9218 5.83152 24.35 7.63253 25.3667 12.057C25.4024 12.2235 25.554 12.2444 26.9008 12.2444H28.3903L28.5331 11.6406C28.7471 10.7453 30.9145 1.28214 30.9145 1.2405C30.9145 1.21968 30.4685 1.21968 29.9245 1.23009L28.9255 1.26132L28.1941 4.46774C27.7838 6.23752 27.436 7.69499 27.4092 7.72622C27.3646 7.77827 27.3468 7.68458 26.446 3.73901L25.8751 1.20927H24.3767C23.2618 1.20927 22.8694 1.2405 22.8426 1.3342Z" fill="#D7D7D7"/>
<path d="M31.6726 1.3342C31.5834 1.6361 29.2198 12.0257 29.2198 12.1403C29.2198 12.2339 29.8085 12.2548 31.521 12.2235C33.724 12.1819 33.84 12.1715 34.4108 11.9112C36.9885 10.7661 38.808 7.72622 38.6474 4.85293C38.585 3.71819 38.2996 2.94782 37.702 2.23991C36.9171 1.3342 36.7387 1.28215 34.0184 1.23009C32.1543 1.19886 31.7083 1.21968 31.6726 1.3342ZM35.2314 2.91659C36.0965 3.33301 36.2839 5.27976 35.6506 7.34103C35.3206 8.44454 34.9014 9.23574 34.2949 9.8916C33.733 10.5058 33.2602 10.714 32.6002 10.662L32.1989 10.6307L33.064 6.84133C33.5457 4.75924 33.9559 2.98946 33.9827 2.90618C34.0451 2.71879 34.8389 2.7292 35.2314 2.91659Z" fill="#D7D7D7"/>
<path d="M40.3421 6.08137C39.0845 8.75686 37.9071 11.2345 37.7377 11.5989L37.4255 12.2444H38.4334H39.4323L40.1548 10.7036L40.8861 9.17327L41.8316 9.14204L42.777 9.11081V10.0373C42.777 10.5475 42.8038 11.2554 42.8305 11.6093L42.893 12.2444H44.1684H45.4528V10.6516C45.4528 9.76667 45.426 7.28898 45.3903 5.13401L45.3368 1.20927H43.99H42.6432L40.3421 6.08137ZM42.7681 6.79969L42.777 7.55965H42.2419C41.9475 7.55965 41.7067 7.52842 41.7067 7.49719C41.7067 7.46596 41.9208 6.98708 42.1705 6.43532C42.6165 5.47756 42.6432 5.43592 42.6967 5.73782C42.7324 5.90439 42.7592 6.39368 42.7681 6.79969Z" fill="#D7D7D7"/>
<path d="M48.1731 1.33419C48.1553 1.40706 47.8253 2.82289 47.4418 4.48856C46.7639 7.44513 46.755 7.52842 46.7461 8.75685C46.7461 9.91241 46.7639 10.0477 46.9869 10.537C47.4507 11.5677 48.2267 12.0986 49.4218 12.2131C51.6338 12.4005 53.6941 10.7348 54.6306 7.98648C54.8447 7.37226 56.245 1.53199 56.245 1.27173C56.245 1.23009 55.6474 1.20927 54.925 1.20927H53.6049L53.3552 2.32319C51.7943 9.17327 51.5714 9.84995 50.7062 10.4642C50.2959 10.7557 49.8054 10.7452 49.5021 10.4433C49.2078 10.1414 49.1275 9.46476 49.2791 8.42372C49.3683 7.85114 50.4386 2.98945 50.7954 1.5424L50.8846 1.20927H49.5467C48.5567 1.20927 48.1999 1.2405 48.1731 1.33419Z" fill="#D7D7D7"/>
<path d="M56.3877 2.30237C56.1648 2.90618 55.9774 3.44752 55.9774 3.49957C55.9774 3.55162 56.4948 3.61409 57.1191 3.6245L58.2608 3.65573L57.2975 7.81991C56.7713 10.1102 56.3431 12.0466 56.3342 12.109C56.3342 12.2131 56.6553 12.2444 57.6543 12.2444H58.9743L59.9465 7.94484L60.9276 3.65573L62.1049 3.6245C63.4607 3.59327 63.3269 3.73901 63.4339 2.16703L63.4963 1.20927H60.1516H56.8069L56.3877 2.30237Z" fill="#D7D7D7"/>
</svg>
