<svg width="223" height="26" viewBox="0 0 223 26" fill="none" xmlns="http://www.w3.org/2000/svg">
<path d="M174.235 0.305017C169.05 1.75328 164.471 6.77548 162.719 12.9423C161.995 15.5585 161.995 19.3894 162.719 21.2347C163.42 23.01 164.822 24.5517 166.457 25.3459C167.695 25.9533 167.975 26 170.591 26C173.885 25.9766 175.053 25.6263 177.833 23.7575L179.538 22.6129L196.45 22.3793C227.961 21.9355 229.223 21.6552 201.776 21.2114C192.199 21.0479 183.696 20.8376 182.855 20.7442L181.337 20.5807L183.322 20.5573C193.904 20.4172 221.211 19.7398 221.748 19.5996C222.425 19.4127 222.425 19.4127 221.397 19.2726C220.813 19.2025 213.035 18.9689 204.112 18.7587C189.582 18.4083 180.893 18.0579 184.14 17.9645C199.627 17.5207 222.215 16.7498 222.285 16.6564C222.355 16.5863 222.355 16.5162 222.308 16.4695C222.262 16.4228 214.904 16.1658 205.98 15.8622C189.652 15.3483 184.42 15.138 184.56 14.9979C184.607 14.9512 192.829 14.6008 202.85 14.2037C221.211 13.5029 223.593 13.3861 221.047 13.2927C215.955 13.1525 185.565 11.8678 185.495 11.7743C185.284 11.5875 188.414 11.4006 202.593 10.7699C210.699 10.4195 217.053 10.0925 216.726 10.0458C216.399 10.0224 209.391 9.69537 201.122 9.32162C192.853 8.94788 186.032 8.57413 185.962 8.50405C185.868 8.43398 185.868 8.31718 185.915 8.27046C185.962 8.22374 191.638 7.92008 198.506 7.56969C205.373 7.19594 211.026 6.89228 211.049 6.86892C211.073 6.84556 205.373 6.54189 198.389 6.23822C191.381 5.9112 185.588 5.56081 185.495 5.49073C185.424 5.39729 185.401 5.2805 185.471 5.21042C185.541 5.14035 189.746 4.83668 194.791 4.53301C199.86 4.22934 203.785 3.97239 203.528 3.94903C203.271 3.94903 199.533 3.76216 195.235 3.57529C185.097 3.10811 184.023 3.01467 184.023 2.66428C184.023 2.43069 185.448 2.29054 189.863 2.05695C193.086 1.89343 195.679 1.72992 195.656 1.70656C195.609 1.65984 192.596 1.51969 188.952 1.35618C183.112 1.09923 182.201 1.00579 181.243 0.585327C179.842 -0.0453682 176.081 -0.208883 174.235 0.305017ZM177.132 3.69208C178.534 4.22934 179.001 6.96235 178.277 10.7232C176.805 18.5485 173.021 23.921 170.311 22.029C167.788 20.2537 170.358 8.69093 174.095 4.95347C174.749 4.27606 175.567 3.69208 175.871 3.62201C176.174 3.57529 176.455 3.50521 176.478 3.48185C176.501 3.48185 176.782 3.55193 177.132 3.69208Z" fill="#F84E06"/>
<path d="M0.0934363 2.33725C0.140154 3.27162 0.25695 8.85443 0.327027 14.7176L0.467182 25.416H4.01776L7.54498 25.3927L14.1322 13.4328C17.7529 6.84555 20.7896 1.28609 20.8597 1.0525C21.0232 0.678759 20.8129 0.655399 18.477 0.655399H15.9542L11.8664 8.03687C9.62394 12.1247 7.66178 15.6052 7.49826 15.8154C7.26467 16.1191 7.21795 15.1147 7.1946 10.91C7.1946 8.01351 7.12452 4.50965 7.03108 3.15482L6.89093 0.655399H3.43378H0L0.0934363 2.33725Z" fill="#F84E06"/>
<path d="M22.2613 0.935709C22.0277 1.61312 15.8375 24.9021 15.8375 25.1591C15.8375 25.3459 17.823 25.416 23.2657 25.416H30.6706L31.7217 22.94C32.3057 21.5851 32.7962 20.3938 32.8429 20.3004C32.8663 20.1836 31.0443 20.1135 28.7785 20.1369C26.5126 20.1602 24.5505 20.0901 24.4103 19.9967C24.2468 19.9033 24.3402 19.1558 24.714 17.7309L25.2746 15.6052H28.8252H32.3991L32.6561 14.6008C32.7962 14.0635 33.1233 12.9189 33.3568 12.0313L33.7773 10.4662H30.2968C27.9142 10.4662 26.8163 10.3961 26.8163 10.2093C26.8163 10.0691 27.0499 9.06466 27.3302 7.99015L27.8441 6.02799L31.8151 5.98127L35.8096 5.91119L35.9497 4.62644C36.0431 3.92567 36.1599 2.73436 36.2534 1.98687L36.3935 0.655399H29.3858C23.9899 0.655399 22.3314 0.725477 22.2613 0.935709Z" fill="#F84E06"/>
<path d="M40.2475 0.935709C39.8738 2.0803 33.8238 24.8554 33.8238 25.1591C33.8238 25.3459 35.8093 25.416 41.252 25.416H48.6568L49.708 22.94C50.292 21.5851 50.7825 20.3938 50.8292 20.3004C50.8526 20.1836 49.0306 20.1135 46.7647 20.1369C44.4989 20.1602 42.5367 20.0901 42.3966 19.9967C42.2331 19.9033 42.3265 19.1558 42.7002 17.7309L43.2609 15.6052H46.8115H50.3854L50.6423 14.6008C50.7825 14.0635 51.1095 12.9189 51.3431 12.0313L51.7636 10.4662H48.2831C45.9004 10.4662 44.8026 10.3961 44.8026 10.2093C44.8026 10.0691 45.0362 9.06466 45.3165 7.99015L45.8304 6.02799L49.8014 5.98127L53.7958 5.91119L53.936 4.62644C54.0294 3.92567 54.1462 2.73436 54.2396 1.98687L54.3798 0.655399H47.3721C41.9528 0.655399 40.3176 0.725477 40.2475 0.935709Z" fill="#F84E06"/>
<path d="M58.2345 0.935709C58.001 1.58976 51.8108 24.9255 51.8108 25.1591C51.8108 25.3226 52.6984 25.416 54.3569 25.416H56.8797L57.9542 21.3983C58.5616 19.1791 59.4259 15.8622 59.9164 14.0401C60.3836 12.1948 60.8508 10.7699 60.9442 10.8867C61.061 11.0268 62.1822 15.0679 64.8452 24.9956C64.9386 25.3693 65.3357 25.416 68.8629 25.416H72.7639L73.1376 24.0612C73.6983 22.0523 79.3745 0.818913 79.3745 0.725477C79.3745 0.678759 78.2066 0.678759 76.7817 0.702118L74.1654 0.772196L72.25 7.96679C71.1755 11.9378 70.2645 15.2081 70.1944 15.2782C70.0776 15.395 70.0309 15.1847 67.6716 6.33165L66.1766 0.655399H62.2523C59.3324 0.655399 58.3046 0.725477 58.2345 0.935709Z" fill="#F84E06"/>
<path d="M81.3597 0.934696C81.1261 1.61211 74.9359 24.9245 74.9359 25.1814C74.9359 25.3917 76.4776 25.4384 80.9626 25.3683C86.7323 25.2749 87.0359 25.2515 88.5309 24.6675C95.2817 22.098 100.047 15.2772 99.6265 8.83007C99.463 6.28393 98.7155 4.55535 97.1504 2.96694C95.0948 0.934694 94.6276 0.8179 87.5031 0.701105C82.6211 0.631027 81.4531 0.677746 81.3597 0.934696ZM90.6799 4.48528C92.9458 5.41964 93.4363 9.78779 91.7778 14.4129C90.9135 16.889 89.8157 18.6642 88.2272 20.1359C86.7556 21.5141 85.5176 21.9812 83.789 21.8644L82.7379 21.7944L85.0037 13.2917C86.2651 8.61984 87.3396 4.64879 87.4097 4.46192C87.5732 4.04145 89.6521 4.06481 90.6799 4.48528Z" fill="#F84E06"/>
<path d="M104.065 11.5874C100.771 17.5907 97.6879 23.1502 97.2441 23.9678L96.4265 25.416H99.0661H101.682L103.574 21.9589L105.49 18.5251L107.966 18.455L110.442 18.3849V20.4639C110.442 21.6085 110.512 23.1969 110.582 23.9911L110.746 25.416H114.086H117.45V21.8421C117.45 19.8566 117.38 14.2971 117.286 9.46177L117.146 0.655399H113.619H110.092L104.065 11.5874ZM110.419 13.1992L110.442 14.9044H109.04C108.27 14.9044 107.639 14.8344 107.639 14.7643C107.639 14.6942 108.2 13.6197 108.854 12.3817C110.022 10.2326 110.092 10.1392 110.232 10.8166C110.325 11.1903 110.395 12.2882 110.419 13.1992Z" fill="#F84E06"/>
<path d="M124.574 0.935596C124.527 1.09911 123.663 4.27594 122.659 8.01339C120.883 14.6474 120.86 14.8342 120.837 17.5906C120.837 20.1835 120.883 20.4871 121.467 21.585C122.682 23.8976 124.714 25.0889 127.844 25.3458C133.637 25.7663 139.033 22.0288 141.486 15.862C142.047 14.4839 145.714 1.37942 145.714 0.795441C145.714 0.702005 144.149 0.655287 142.257 0.655287H138.8L138.146 3.15471C134.058 18.525 133.474 20.0433 131.208 21.4215C130.133 22.0755 128.849 22.0522 128.054 21.3748C127.284 20.6974 127.073 19.179 127.47 16.8431C127.704 15.5584 130.507 4.64969 131.442 1.40278L131.675 0.655287H128.171C125.578 0.655287 124.644 0.725365 124.574 0.935596Z" fill="#F84E06"/>
<path d="M146.088 3.1081C145.504 4.46293 145.013 5.6776 145.013 5.7944C145.013 5.91119 146.368 6.05135 148.003 6.07471L150.993 6.14478L148.47 15.4884C147.092 20.6274 145.971 24.9722 145.947 25.1123C145.947 25.3459 146.788 25.416 149.405 25.416H152.862L155.408 15.7687L157.977 6.14478L161.061 6.07471C164.611 6.00463 164.261 6.33165 164.541 2.80443L164.705 0.655399H155.945H147.186L146.088 3.1081Z" fill="#F84E06"/>
</svg>
