<svg width="30" height="30" viewBox="0 0 30 30" fill="none" xmlns="http://www.w3.org/2000/svg">
<path id="Vector" d="M25.575 4.36508C24.1998 2.97597 22.5618 1.87459 20.7565 1.12516C18.9512 0.37574 17.0147 -0.00672015 15.06 8.93542e-05C6.87005 8.93542e-05 0.195073 6.67507 0.195073 14.865C0.195073 17.49 0.885071 20.04 2.17507 22.29L0.0750732 30L7.95005 27.93C10.125 29.115 12.57 29.745 15.06 29.745C23.25 29.745 29.925 23.07 29.925 14.88C29.925 10.9051 28.38 7.17007 25.575 4.36508ZM15.06 27.225C12.84 27.225 10.665 26.625 8.76005 25.5L8.31005 25.23L3.63006 26.46L4.87506 21.9L4.57506 21.435C3.34168 19.4655 2.68678 17.1889 2.68507 14.865C2.68507 8.05507 8.23505 2.50508 15.045 2.50508C18.345 2.50508 21.45 3.79508 23.775 6.13507C24.9262 7.28101 25.8385 8.64406 26.4591 10.1452C27.0796 11.6463 27.396 13.2557 27.39 14.88C27.42 21.69 21.87 27.225 15.06 27.225ZM21.84 17.985C21.465 17.805 19.635 16.905 19.305 16.77C18.96 16.65 18.72 16.59 18.465 16.95C18.21 17.325 17.505 18.165 17.295 18.405C17.085 18.66 16.86 18.69 16.485 18.495C16.11 18.315 14.91 17.91 13.5 16.65C12.39 15.66 11.655 14.445 11.43 14.07C11.22 13.695 11.4 13.5 11.595 13.305C11.76 13.14 11.97 12.8701 12.15 12.6601C12.33 12.4501 12.405 12.2851 12.525 12.0451C12.645 11.7901 12.585 11.5801 12.495 11.4001C12.405 11.2201 11.655 9.39006 11.355 8.64006C11.055 7.92007 10.74 8.01007 10.515 7.99507H9.79504C9.54004 7.99507 9.15005 8.08507 8.80505 8.46006C8.47505 8.83506 7.51505 9.73506 7.51505 11.5651C7.51505 13.3951 8.85005 15.165 9.03005 15.405C9.21005 15.66 11.655 19.41 15.375 21.015C16.26 21.405 16.95 21.63 17.49 21.795C18.375 22.08 19.185 22.035 19.83 21.945C20.55 21.84 22.035 21.045 22.335 20.175C22.65 19.305 22.65 18.57 22.545 18.405C22.44 18.24 22.215 18.165 21.84 17.985Z" fill="white"/>
</svg>
