<svg width="38" height="38" viewBox="0 0 38 38" fill="none" xmlns="http://www.w3.org/2000/svg">
<path d="M17.8288 1.64723C18.5825 1.96348 19.1986 1.72485 19.9259 1.44653C20.7061 1.1605 21.5211 1.14034 22.2856 1.48435C22.8385 1.78596 23.2823 2.20203 23.6846 2.6804C24.1396 3.18639 24.6441 3.29245 25.3 3.36442C25.8472 3.42539 26.3337 3.51716 26.8383 3.75169C26.89 3.77516 26.9417 3.79864 26.995 3.82282C27.8011 4.25318 28.1621 5.17146 28.4236 5.99644C28.6717 6.7454 28.9898 7.09048 29.6566 7.5095C30.4483 8.00722 31.1213 8.57083 31.3413 9.51939C31.4347 10.0839 31.4135 10.6335 31.3188 11.195C31.2383 12.0358 31.4268 12.5537 31.8675 13.258C32.3475 14.0269 32.5871 14.7605 32.475 15.6755C32.3172 16.3569 31.9986 16.9098 31.607 17.4779C31.1857 18.126 31.2794 18.8387 31.391 19.5779C31.44 20.4772 31.3102 21.2579 30.7316 21.9671C30.3894 22.3408 29.9735 22.5994 29.5508 22.8727C28.8595 23.3236 28.6332 23.7173 28.3559 24.4919C28.0028 25.4216 27.612 26.1934 26.6847 26.6373C26.209 26.8258 25.7222 26.8872 25.2168 26.9435C24.6918 27.0043 24.2003 27.0967 23.7986 27.4684C23.7505 27.5126 23.7025 27.5569 23.653 27.6024C23.5177 27.7402 23.3966 27.8834 23.2747 28.0329C22.8264 28.5601 22.1345 28.9941 21.4373 29.0647C20.7442 29.0872 20.1287 28.9175 19.4853 28.6743C18.5863 28.3422 17.9157 28.5836 17.0375 28.9108C16.39 29.1427 15.6434 29.1383 15.0178 28.8504C14.4256 28.5306 14.0111 28.1412 13.5682 27.6375C13.0473 27.0822 12.4865 26.9813 11.7542 26.9063C10.9108 26.8161 10.143 26.6013 9.5668 25.9372C9.19205 25.4195 8.97002 24.8487 8.75889 24.2503C8.4817 23.4858 8.13396 23.1909 7.4711 22.7575C6.64312 22.2122 6.03809 21.6343 5.83157 20.6393C5.7947 20.2042 5.77982 19.7711 5.84512 19.3385C5.98199 18.3291 5.80344 17.6943 5.22183 16.8679C4.76292 16.1952 4.63674 15.4664 4.725 14.6638C4.87525 13.9508 5.24935 13.3596 5.63284 12.7499C5.99869 12.1138 5.92709 11.4635 5.80899 10.7615C5.75399 10.0158 5.79624 9.21721 6.26065 8.60252C6.34925 8.5016 6.43952 8.40213 6.53164 8.30442C6.56872 8.26092 6.6058 8.21741 6.644 8.17259C6.96357 7.81883 7.35374 7.59549 7.75818 7.35226C8.46047 6.92908 8.67136 6.39421 8.91189 5.62608C9.04953 5.19935 9.24122 4.84309 9.49454 4.47434C9.53967 4.40406 9.53967 4.40406 9.58571 4.33235C9.97653 3.79601 10.6955 3.53537 11.3311 3.41605C11.487 3.39461 11.6433 3.37591 11.7997 3.35789C11.8506 3.352 11.9015 3.34611 11.954 3.34004C12.0553 3.3287 12.1566 3.31825 12.2581 3.30885C12.7738 3.25391 13.099 3.06085 13.4737 2.71287C13.5363 2.65511 13.5989 2.59736 13.6634 2.53785C13.783 2.42384 13.9002 2.30721 14.0157 2.18894C15.1475 1.0861 16.4083 1.03973 17.8288 1.64723ZM11.5689 9.14562C10.5712 10.2992 9.88246 11.7293 9.5668 13.2185C9.55414 13.2748 9.54149 13.3311 9.52845 13.3892C9.41093 13.9572 9.39439 14.514 9.39517 15.0929C9.39521 15.142 9.39525 15.1911 9.39529 15.2417C9.40339 17.4529 10.1749 19.5837 11.6625 21.24C11.7005 21.2823 11.7385 21.3247 11.7776 21.3683C12.39 22.0387 13.057 22.5729 13.8305 23.0466C13.8959 23.0871 13.8959 23.0871 13.9627 23.1284C15.853 24.2748 18.3025 24.6955 20.4645 24.2099C22.2872 23.7508 23.734 22.9617 25.1039 21.6736C25.1679 21.6165 25.1679 21.6165 25.2332 21.5584C26.3984 20.476 27.1469 18.9227 27.5609 17.4099C27.5977 17.2813 27.5977 17.2813 27.6352 17.1502C27.9699 15.7311 27.912 14.0327 27.4887 12.6404C27.4736 12.5889 27.4585 12.5374 27.4429 12.4844C26.7572 10.2016 25.1781 8.21707 23.0805 7.0759C19.1572 5.01357 14.5438 5.82257 11.5689 9.14562Z" fill="#F04037"/>
<path d="M22.141 8.23219C22.2088 8.26554 22.2767 8.29889 22.3465 8.33325C22.8654 8.59708 23.2906 8.93828 23.7309 9.31618C23.8054 9.37282 23.8799 9.42945 23.9567 9.48781C25.3065 10.7203 26.2478 12.6497 26.3414 14.4782C26.4083 16.7643 25.8429 18.7794 24.2652 20.4835C22.8128 22.0132 20.941 22.7889 18.845 22.9182C16.5886 22.9739 14.6066 22.0985 12.9814 20.567C11.9948 19.5311 11.3242 18.225 11.0121 16.8318C10.996 16.767 10.9799 16.7021 10.9633 16.6353C10.5564 14.7087 10.9945 12.6361 12.0238 10.9783C12.7962 9.823 13.7074 8.99445 14.9145 8.30446C14.9737 8.27027 15.033 8.23608 15.094 8.20086C15.453 8.0075 15.8234 7.87251 16.2107 7.74892C16.2564 7.73427 16.3021 7.71963 16.3491 7.70454C18.243 7.12867 20.395 7.29682 22.141 8.23219ZM20.4967 13.2089C20.4516 13.2778 20.4066 13.3467 20.3602 13.4176C20.2169 13.6369 20.0746 13.8568 19.9324 14.0767C19.7897 14.2959 19.6468 14.5151 19.5038 14.7342C19.4152 14.8702 19.3267 15.0064 19.2384 15.1427C19.0096 15.4954 18.7751 15.8415 18.5277 16.1814C18.2568 16.0689 18.0877 15.9015 17.8836 15.6933C17.8167 15.6257 17.7498 15.558 17.6809 15.4883C17.6108 15.4167 17.5408 15.3452 17.4709 15.2736C17.3331 15.1332 17.1951 14.9932 17.057 14.8532C16.996 14.791 16.9351 14.7287 16.8722 14.6645C16.64 14.4414 16.4686 14.4187 16.1458 14.4211C15.8987 14.4646 15.7866 14.6182 15.6371 14.8084C15.5281 15.0264 15.5287 15.1425 15.5648 15.3865C15.6615 15.5235 15.6615 15.5235 15.7884 15.6578C15.8575 15.734 15.8575 15.734 15.928 15.8117C16.2817 16.1907 16.6429 16.5618 17.0073 16.9305C17.106 17.0308 17.2043 17.1315 17.302 17.2326C17.4446 17.38 17.5885 17.5259 17.7328 17.6716C17.776 17.7168 17.8193 17.7621 17.8638 17.8087C18.0764 18.0203 18.2077 18.1233 18.5006 18.2111C18.7795 18.204 18.8902 18.1617 19.1059 17.9881C19.6784 17.3488 20.1175 16.5459 20.5873 15.8302C20.7266 15.618 20.8662 15.4059 21.0058 15.1938C21.1841 14.9231 21.3616 14.6518 21.5386 14.3802C21.6869 14.1531 21.8377 13.9282 21.9929 13.7056C22.0241 13.6599 22.0554 13.6141 22.0875 13.567C22.1681 13.4494 22.2499 13.3327 22.3319 13.2161C22.4577 12.9414 22.4322 12.7852 22.3578 12.4959C22.2193 12.273 22.2193 12.273 21.9965 12.1345C21.2019 12.0084 20.885 12.6045 20.4967 13.2089Z" fill="#F04037"/>
<path d="M29.2231 26.0818C29.439 26.2825 29.5851 26.4749 29.7261 26.7333C29.7656 26.805 29.8051 26.8766 29.8458 26.9505C29.8877 27.0275 29.9296 27.1045 29.9728 27.1838C30.0634 27.348 30.1541 27.5121 30.2449 27.6761C30.268 27.718 30.2912 27.7598 30.315 27.8028C30.5498 28.2266 30.7935 28.645 31.0387 29.0627C31.3706 29.6291 31.7011 30.1962 32.0279 30.7655C32.0647 30.8294 32.1016 30.8933 32.1395 30.9591C32.1732 31.0179 32.2069 31.0767 32.2416 31.1373C32.2711 31.1887 32.3006 31.2401 32.331 31.293C32.5436 31.6972 32.5052 32.1411 32.475 32.5857C32.3266 33.023 32.0335 33.3148 31.6394 33.5477C30.9052 33.8751 29.9698 33.6129 29.205 33.489C29.0941 33.4715 28.9831 33.4541 28.8722 33.4368C28.6036 33.3947 28.3352 33.3517 28.0668 33.3083C28.0402 33.3776 28.0137 33.4468 27.9863 33.5181C27.8866 33.7775 27.786 34.0365 27.6853 34.2955C27.642 34.4071 27.5989 34.5188 27.556 34.6306C26.9484 36.2137 26.9484 36.2137 26.3324 36.6326C25.7672 36.8484 25.3351 36.8028 24.7807 36.6007C24.3311 36.3234 24.0796 35.8647 23.8393 35.4086C23.7765 35.2926 23.7135 35.1768 23.6504 35.0611C23.6169 34.9996 23.5834 34.9381 23.5489 34.8748C23.3579 34.5299 23.158 34.1903 22.9585 33.8503C22.5356 33.1286 22.1164 32.4048 21.6992 31.6798C21.6562 31.6051 21.6131 31.5304 21.5688 31.4534C21.531 31.3877 21.4931 31.3219 21.4542 31.2541C21.3798 31.126 21.3011 31.0003 21.2193 30.8769C21.1896 30.8208 21.1599 30.7646 21.1293 30.7068C21.1532 30.6352 21.177 30.5637 21.2016 30.49C21.2593 30.4837 21.3171 30.4775 21.3766 30.4711C22.3637 30.3448 23.3732 29.9841 24.0405 29.2124C24.7236 28.43 25.206 28.2697 26.2285 28.1965C27.0975 28.1027 28.107 27.5819 28.6571 26.899C28.7293 26.7963 28.7293 26.7963 28.803 26.6915C28.8761 26.5885 28.8761 26.5885 28.9506 26.4835C29.0427 26.3504 29.1333 26.2164 29.2231 26.0818Z" fill="#F04037"/>
<path d="M7.90469 26.0818C8.06667 26.2361 8.19866 26.3972 8.32925 26.5786C8.98623 27.461 9.8959 28.0017 10.9749 28.2275C11.1689 28.2548 11.1689 28.2548 11.4152 28.2517C11.9853 28.2668 12.3279 28.3546 12.7402 28.7663C12.9204 28.9598 13.0979 29.1558 13.2753 29.3518C13.8619 29.9617 14.8506 30.3895 15.6868 30.4584C15.7586 30.4644 15.8304 30.4705 15.9044 30.4767C15.9867 30.4833 15.9867 30.4833 16.0707 30.49C16.0287 30.765 15.9504 30.9616 15.8082 31.1999C15.7684 31.2673 15.7285 31.3347 15.6875 31.4042C15.644 31.4766 15.6006 31.549 15.5558 31.6237C15.463 31.7805 15.3702 31.9373 15.2775 32.0942C15.2294 32.1753 15.1813 32.2564 15.1317 32.3399C14.8997 32.7332 14.6724 33.1292 14.4447 33.5251C14.3545 33.6813 14.2643 33.8374 14.174 33.9935C13.9893 34.3134 13.8065 34.6344 13.6247 34.9561C13.5352 35.1129 13.4457 35.2698 13.3562 35.4266C13.3158 35.4991 13.2754 35.5715 13.2337 35.6461C12.9246 36.185 12.6281 36.5404 12.0238 36.7407C11.5707 36.8548 11.1323 36.7733 10.723 36.5603C10.2096 36.1619 10.0103 35.557 9.7836 34.9705C9.72646 34.8254 9.66924 34.6804 9.61197 34.5355C9.451 34.1269 9.29165 33.7178 9.13321 33.3083C9.06551 33.3193 8.99781 33.3302 8.92805 33.3415C8.6728 33.3826 8.4174 33.4228 8.16196 33.4627C8.05218 33.48 7.94244 33.4975 7.83274 33.5153C5.9241 33.824 5.9241 33.824 5.30313 33.3806C4.96409 33.0943 4.76235 32.8296 4.69423 32.3847C4.65134 31.6916 4.89118 31.213 5.23086 30.6345C5.30448 30.5067 5.37806 30.3788 5.45161 30.2509C5.6215 29.9571 5.79296 29.6642 5.96537 29.3718C6.25111 28.887 6.53145 28.3991 6.81167 27.911C7.16605 27.2948 7.52422 26.6823 7.90469 26.0818Z" fill="#F04037"/>
</svg>
