<svg width="34" height="34" viewBox="0 0 34 34" fill="none" xmlns="http://www.w3.org/2000/svg">
<path d="M16.9924 0.6203C18.143 0.6203 19.0757 1.55304 19.0757 2.70363V15.2036H31.5757C32.7263 15.2036 33.6591 16.1364 33.6591 17.287C33.6591 18.4376 32.7263 19.3703 31.5757 19.3703H19.0757V31.8703C19.0757 33.0209 18.143 33.9536 16.9924 33.9536C15.8418 33.9536 14.9091 33.0209 14.9091 31.8703V19.3703H2.40908C1.25848 19.3703 0.325745 18.4376 0.325745 17.287C0.325745 16.1364 1.25848 15.2036 2.40908 15.2036H14.9091V2.70363C14.9091 1.55304 15.8418 0.6203 16.9924 0.6203Z" fill="#E7E7E7"/>
</svg>
